<svg t="1573721806044" class="icon" viewBox="0 0 1421 1024" version="1.1" xmlns="http://www.w3.org/2000/svg" p-id="17272" width="200" height="200"><path d="M1001.84595406 688.24517375a65.42291625 65.42291625 0 0 1-0.76738687 90.34345406 62.21029969 62.21029969 0 0 1-88.44449813 0.78039188 298.72129406 298.72129406 0 0 0-214.23078469-90.61659094c-81.48599719 0-157.79539125 32.94557531-214.21777875 90.61659094a62.21029969 62.21029969 0 0 1-88.44449812-0.78039188 65.42291625 65.42291625 0 0 1-0.76738594-90.34345406c80.40645469-82.29240375 189.6093975-128.49164719 303.4686825-128.36158219 113.87229188-0.130065 223.07523469 46.06917844 303.48168938 128.36158219z" p-id="17273" fill="#1afa29"></path><path d="M1174.41677844 496.47668937a65.3969025 65.3969025 0 0 1-0.76738594 90.33044813 62.19729281 62.19729281 0 0 1-88.44449906 0.78039281c-102.50457281-104.92378969-241.72661906-163.77840094-386.84062875-163.54428375-147.06499219 0-284.84331188 59.47892531-386.78860313 163.54428375a62.2363125 62.2363125 0 0 1-61.39088718 17.57184094 63.73206562 63.73206562 0 0 1-45.08068125-46.01715281 65.33187 65.33187 0 0 1 17.22066375-62.66552907c126.16347563-129.08994844 297.44665313-201.60143063 476.03950781-201.32829281 180.96004594 0 350.69544375 73.27886813 476.03950687 201.32829281z" p-id="17274" fill="#1afa29"></path><path d="M1347.03962938 306.32101812a65.40990938 65.40990938 0 0 1-0.8194125 90.34345407 62.18428687 62.18428687 0 0 1-88.44449813 0.71535937C1109.55314375 245.68451 908.22485094 160.55667969 698.36426469 160.88184406c-212.70901969 0-411.91724625 86.02528125-559.37243438 236.4979875a62.17128 62.17128 0 0 1-88.44449906-0.71535937 65.40990938 65.40990938 0 0 1-0.83241844-90.34345406C221.55737094 130.40751125 454.99882156 31.67483656 698.36426469 32.02601281c246.53904 0 477.82140375 99.87725063 648.67536468 274.32101813zM698.36426469 820.31362062c-46.42035562 0-84.04828688 38.43433687-84.04828688 85.84318969s37.62793125 85.84318969 84.04828688 85.84318969 84.04828688-38.42133094 84.04828687-85.84318969-37.62793125-85.84318969-84.04828687-85.84318968z m0 1e-8" p-id="17275" fill="#1afa29"></path></svg>