<svg t="1571911161279" class="icon" viewBox="0 0 1024 1024" version="1.1" xmlns="http://www.w3.org/2000/svg" p-id="4487" width="200" height="200"><path d="M431.008 879.008q-11.008-14.016-8.992-32t16-28.992l380.992-307.008L440 206.016q-14.016-11.008-16-28.992t8.992-32 28.992-16 32 8.992l422.016 339.008q16.992 12.992 16.992 34.016t-16.992 34.016l-424 340.992q-12 10.016-27.008 10.016-20.992 0-34.016-16.992z m-330.016 0q-11.008-14.016-8.992-32t16-28.992l380.992-307.008L109.984 206.016q-14.016-11.008-16-28.992t8.992-32 28.992-16 32 8.992l422.016 339.008q16.992 12.992 16.992 34.016t-16.992 34.016L161.984 886.048q-12 10.016-27.008 10.016-20.992 0-34.016-16.992z" p-id="4488"></path></svg>