<svg t="1571909366847" class="icon" viewBox="0 0 1024 1024" version="1.1" xmlns="http://www.w3.org/2000/svg" p-id="3849" width="200" height="200"><path d="M559.008 896q-15.008 0-27.008-10.016L108 544.992q-16.992-12.992-16.992-34.016t16.992-34.016L530.016 137.952q14.016-11.008 32-8.992t28.992 16 8.992 32-16 28.992L204.992 510.944l380.992 307.008q14.016 11.008 16 28.992t-8.992 32q-12.992 16.992-34.016 16.992z m329.984 0q-15.008 0-27.008-10.016l-424-340.992q-16.992-12.992-16.992-34.016t16.992-34.016L860 137.952q14.016-11.008 32-8.992t28.992 16 8.992 32-16 28.992l-379.008 304.992 380.992 307.008q14.016 11.008 16 28.992t-8.992 32q-12.992 16.992-34.016 16.992z" p-id="3850"></path></svg>