<svg t="1572937956945" class="icon" viewBox="0 0 1024 1024" version="1.1" xmlns="http://www.w3.org/2000/svg" p-id="10151" width="200" height="200"><path d="M930.622594 200.06307l2.917256 1.455018-2.917256-1.455018z m0 0M511.714816 0.00361C229.138185 0.00361 0.068642 229.073154 0.068642 511.649785c0 282.57302 229.069544 511.638954 511.646174 511.638953 282.57302 0 511.642564-229.065933 511.642564-511.638953C1023.360991 229.073154 794.287836 0.00361 511.714816 0.00361z m244.800339 409.213681l-196.788379 193.307891-95.164629 93.149989c-0.436866 0.498244-0.920669 1.050645-1.501953 1.62832a39.029123 39.029123 0 0 1-2.494831 2.285424c-5.867005 5.635935-13.708934 8.737325-22.121318 8.737324-0.213017 0-0.429645-0.00361-0.642662-0.010831a23.125026 23.125026 0 0 1-0.707651 0.010831c-8.62179 0-16.62258-3.234976-22.536521-9.120034a31.172752 31.172752 0 0 1-3.599633-3.585191l-0.050547-0.057767-158.643819-158.607715c-12.882138-12.878528-12.055342-34.660461 1.841337-48.55714 7.000691-7.007912 16.463719-11.022749 25.966462-11.022749 8.650673 0 16.673126 3.26025 22.590678 9.174191l135.370763 135.349101 71.815754-70.299358 196.788379-193.30067c5.90311-5.773133 13.82808-8.953952 22.341555-8.953952 9.63272 0 19.182399 4.11954 26.208364 11.300754 13.74865 14.037487 14.340766 35.826641 1.328651 48.571582z m0 0" p-id="10152" fill="rgb(0, 127, 0)"></path></svg>