<svg t="1572937859364" class="icon" viewBox="0 0 1024 1024" version="1.1" xmlns="http://www.w3.org/2000/svg" p-id="8573" width="200" height="200"><path d="M512 1023.360288C229.583101 1023.360288 0.639712 794.416899 0.639712 512S229.583101 0.639712 512 0.639712 1023.360288 229.583101 1023.360288 512 794.416899 1023.360288 512 1023.360288z m-103.870418-703.119821c-22.063173 0-39.949807 17.885483-39.949807 39.949807v303.619452c0 22.064324 17.886634 39.950957 39.949807 39.950957 22.064324 0 39.949807-17.886634 39.949807-39.950957V360.190274c0-22.064324-17.885483-39.950957-39.949807-39.950957z m207.740836 0c-22.064324 0-39.949807 17.885483-39.949807 39.949807v303.619452c0 22.064324 17.885483 39.950957 39.949807 39.950957 22.063173 0 39.949807-17.886634 39.949807-39.950957V360.190274c0-22.064324-17.886634-39.950957-39.949807-39.950957z" p-id="8574" fill="#ea9518"></path></svg>