<svg t="1573033000098" class="icon" viewBox="0 0 1024 1024" version="1.1" xmlns="http://www.w3.org/2000/svg" p-id="3537" width="200" height="200"><path d="M657.888671 165.027567c-116.523877 0-210.986295 94.459349-210.986295 210.986295 0 58.029648 23.431665 110.582561 61.34516 148.727323l-76.556607 76.556607-74.594929-74.594929-49.729611 49.729611 74.594929 74.594929-49.729611 49.729611-74.594929-74.594929-99.460246 99.460246 74.594929 74.594929 74.594929 74.594929 295.16551-295.16551c17.643845 4.78498 36.199457 7.353478 55.356772 7.353478 116.526947 0 210.986295-94.462418 210.986295-210.986295C868.873943 259.486916 774.414595 165.027567 657.888671 165.027567zM693.052542 425.2441c-46.609551 0-84.394109-37.784558-84.394109-84.394109 0-46.609551 37.784558-84.394109 84.394109-84.394109 46.609551 0 84.394109 37.784558 84.394109 84.394109C777.446651 387.459542 739.662093 425.2441 693.052542 425.2441z" p-id="3538"></path></svg>