<svg t="1574048009200" class="icon" viewBox="0 0 1024 1024" version="1.1" xmlns="http://www.w3.org/2000/svg" p-id="4269" width="200" height="200"><path d="M0.008254 510.943445V181.595409c0-52.26646 18.885922-96.707809 56.525698-132.564649C89.039531 18.159541 128.280647 1.650867 173.431869 0.214613c3.995099-0.132069 7.990198-0.132069 11.985297-0.13207Q513.428 0.082543 841.471851 0c39.488747 0 75.477655 10.483008 107.306378 33.859289 43.615915 32.059844 68.180822 75.395112 73.942349 129.213388a253.870381 253.870381 0 0 1 1.155607 26.529438q0 324.890695 0.115561 649.797898c0 43.071129-12.034823 81.949055-38.811892 115.560714-36.170504 45.464887-83.913587 68.725608-141.974592 68.791643q-331.130973 0.429226-662.294963 0c-87.198813 0-159.17663-58.605791-177.005998-143.74102a200.002579 200.002579 0 0 1-3.714451-40.264655Q-0.239376 675.336816 0.008254 510.943445z m179.21816 15.864835V92.448572a32.191913 32.191913 0 0 0-4.028116-0.24763C148.982524 94.099439 127.12504 104.714516 110.517315 125.350358c-14.06539 17.499194-19.496743 37.606758-19.480235 60.042045q0.346682 326.723157 0.280647 653.429806a111.582124 111.582124 0 0 0 3.400787 28.295867c10.383956 39.026504 44.986135 64.631457 86.687045 64.697491q102.155672 0.148578 204.261817 0h455.424776c23.755981 0 44.755014-7.115238 62.386277-23.112143C924.163797 889.900045 932.748307 865.995486 932.748307 838.392984V192.77178c0-6.240279-0.099052-12.513575-0.693364-18.720835q-5.315793-54.065906-55.271039-75.659251a79.753402 79.753402 0 0 0-32.323983-6.108209v434.524795zM752.803766 92.448572H270.7505v342.125749h482.053266z" p-id="4270"></path><path d="M684.67247 391.915909h-90.880247V148.198362h90.880247z" p-id="4271"></path></svg>