<svg t="1575445241285" class="icon" viewBox="0 0 1024 1024" version="1.1" xmlns="http://www.w3.org/2000/svg" p-id="3536" width="200" height="200"><path d="M227.555556 85.333333v321.649778C227.555556 433.550222 253.013333 455.111111 284.444444 455.111111h455.111112c31.431111 0 56.888889-21.560889 56.888888-48.128V85.333333a142.222222 142.222222 0 0 1 142.222223 142.222223v568.888888a142.222222 142.222222 0 0 1-142.222223 142.222223H227.555556a142.222222 142.222222 0 0 1-142.222223-142.222223V227.555556a142.222222 142.222222 0 0 1 142.222223-142.222223z m56.888888 0h455.111112v312.888889H284.444444V85.333333z m369.777778 113.777778a28.444444 28.444444 0 0 0-28.444444 28.444445v85.333333a28.444444 28.444444 0 0 0 56.888889 0V227.555556a28.444444 28.444444 0 0 0-28.444445-28.444445z" p-id="3537" fill="#1296db"></path></svg>