<svg t="1573203314468" class="icon" viewBox="0 0 1026 1024" version="1.1" xmlns="http://www.w3.org/2000/svg" p-id="5052" width="200" height="200"><path d="M941.025269 0H214.037479a85.482177 85.482177 0 0 0-85.493626 85.447829v112.972494h-43.050226A85.482177 85.482177 0 0 0 0 283.91395v654.592423a85.482177 85.482177 0 0 0 85.493627 85.493627h727.045038a85.470728 85.470728 0 0 0 85.493626-85.493627V796.910059h43.050226a85.470728 85.470728 0 0 0 85.41348-85.493627V85.447829C1027.114272 38.264323 988.849949 0 941.025269 0zM385.620108 583.399258v43.038776H257.087705V754.981886h170.975804v43.038777h-256.469431V411.816629h256.469431v43.038776H257.087705v128.543853z m341.974507 213.430654h-85.493627V625.865557s4.785903-43.038776-43.050225-43.038776c-19.727537 0-43.038776 9.560356-43.038777 43.038776v170.964355h-84.898251v-256.469431h170.987253c-2.392951 0 85.493627-5.381278 85.493627 85.493627v170.975804z m257.076256-84.806655a43.760097 43.760097 0 0 1-43.645602 43.038776h-43.050225V283.959748a85.470728 85.470728 0 0 0-85.493627-85.493627H171.582629V85.447829a42.867033 42.867033 0 0 1 43.050226-43.050226h727.045038a42.867033 42.867033 0 0 1 43.050225 43.050226v626.575428z" p-id="5053"></path></svg>