<svg t="1571917511908" class="icon" viewBox="0 0 1024 1024" version="1.1" xmlns="http://www.w3.org/2000/svg" p-id="9728" width="200" height="200"><path d="M959.89254 511.631566c0-247.403214-200.612137-448.015351-448.015351-448.015351S63.861837 264.228352 63.861837 511.631566s200.612137 448.015351 448.015352 448.015352 448.015351-200.612137 448.015351-448.015352z m-384.173164 205.71126c-66.207532 70.687685-149.834608 93.336532-159.792142 40.073303-7.594646-40.073303 31.984956-185.678292 39.94558-240.434906 2.615879-17.920614-20.032967 0-20.032968 0s-64.962226 45.798762-79.898527 20.03788c-2.362888-4.104351 13.690995-16.675308 20.03788-20.03788 0 0 135.522188-99.555692 179.830021-80.144149 44.302922 19.411542-15.557726 142.122063-20.037879 160.288299-4.354886 18.168693-32.481113 157.181175 59.981002 80.146606 0 0 46.172108-30.73965-20.032967 40.070847m-33.84923-340.739746c-38.579918-2.112353-68.076719-35.214891-65.959453-73.797266 2.117266-38.705186 35.09208-68.323324 73.674455-66.206058 38.577462 2.11702 68.071806 35.220786 65.95454 73.798248-2.112353 38.70273-35.09208 68.322341-73.669542 66.205076" p-id="9729"></path></svg>